<mxfile host="app.diagrams.net" modified="2023-05-29T14:17:42.530Z" agent="Mozilla/5.0 (Windows NT 10.0; Win64; x64) AppleWebKit/537.36 (KHTML, like Gecko) Chrome/112.0.0.0 Safari/537.36" etag="Mt_9BQC7Nzw2dtXHhYm2" version="21.3.5" type="github">
  <diagram id="C5RBs43oDa-KdzZeNtuy" name="Page-1">
    <mxGraphModel dx="1185" dy="661" grid="1" gridSize="10" guides="1" tooltips="1" connect="1" arrows="1" fold="1" page="1" pageScale="1" pageWidth="1920" pageHeight="1200" math="0" shadow="0">
      <root>
        <mxCell id="WIyWlLk6GJQsqaUBKTNV-0" />
        <mxCell id="WIyWlLk6GJQsqaUBKTNV-1" parent="WIyWlLk6GJQsqaUBKTNV-0" />
        <mxCell id="zkfFHV4jXpPFQw0GAbJ--0" value="BattleSceneManager" style="swimlane;fontStyle=2;align=center;verticalAlign=top;childLayout=stackLayout;horizontal=1;startSize=26;horizontalStack=0;resizeParent=1;resizeLast=0;collapsible=1;marginBottom=0;rounded=0;shadow=0;strokeWidth=1;fontSize=12;" parent="WIyWlLk6GJQsqaUBKTNV-1" vertex="1">
          <mxGeometry x="940" y="340" width="188" height="590" as="geometry">
            <mxRectangle x="230" y="140" width="160" height="26" as="alternateBounds" />
          </mxGeometry>
        </mxCell>
        <mxCell id="zkfFHV4jXpPFQw0GAbJ--1" value="Camera myCamera" style="text;align=left;verticalAlign=top;spacingLeft=4;spacingRight=4;overflow=hidden;rotatable=0;points=[[0,0.5],[1,0.5]];portConstraint=eastwest;fontSize=10;" parent="zkfFHV4jXpPFQw0GAbJ--0" vertex="1">
          <mxGeometry y="26" width="188" height="15" as="geometry" />
        </mxCell>
        <mxCell id="YYJl7h6oAbYJ0HVccWD1-96" value="GameObject MyBoard" style="text;align=left;verticalAlign=top;spacingLeft=4;spacingRight=4;overflow=hidden;rotatable=0;points=[[0,0.5],[1,0.5]];portConstraint=eastwest;rounded=0;shadow=0;html=0;fontSize=10;" parent="zkfFHV4jXpPFQw0GAbJ--0" vertex="1">
          <mxGeometry y="41" width="188" height="15" as="geometry" />
        </mxCell>
        <mxCell id="zkfFHV4jXpPFQw0GAbJ--2" value="Player Player" style="text;align=left;verticalAlign=top;spacingLeft=4;spacingRight=4;overflow=hidden;rotatable=0;points=[[0,0.5],[1,0.5]];portConstraint=eastwest;rounded=0;shadow=0;html=0;fontSize=10;" parent="zkfFHV4jXpPFQw0GAbJ--0" vertex="1">
          <mxGeometry y="56" width="188" height="15" as="geometry" />
        </mxCell>
        <mxCell id="YYJl7h6oAbYJ0HVccWD1-98" value="Enemy Enemy" style="text;align=left;verticalAlign=top;spacingLeft=4;spacingRight=4;overflow=hidden;rotatable=0;points=[[0,0.5],[1,0.5]];portConstraint=eastwest;rounded=0;shadow=0;html=0;fontSize=10;" parent="zkfFHV4jXpPFQw0GAbJ--0" vertex="1">
          <mxGeometry y="71" width="188" height="15" as="geometry" />
        </mxCell>
        <mxCell id="YYJl7h6oAbYJ0HVccWD1-99" value="List&lt;Buff&gt; BuffList" style="text;align=left;verticalAlign=top;spacingLeft=4;spacingRight=4;overflow=hidden;rotatable=0;points=[[0,0.5],[1,0.5]];portConstraint=eastwest;rounded=0;shadow=0;html=0;fontSize=10;" parent="zkfFHV4jXpPFQw0GAbJ--0" vertex="1">
          <mxGeometry y="86" width="188" height="15" as="geometry" />
        </mxCell>
        <mxCell id="YYJl7h6oAbYJ0HVccWD1-97" value="//" style="text;align=left;verticalAlign=top;spacingLeft=4;spacingRight=4;overflow=hidden;rotatable=0;points=[[0,0.5],[1,0.5]];portConstraint=eastwest;rounded=0;shadow=0;html=0;fontSize=10;" parent="zkfFHV4jXpPFQw0GAbJ--0" vertex="1">
          <mxGeometry y="101" width="188" height="15" as="geometry" />
        </mxCell>
        <mxCell id="zkfFHV4jXpPFQw0GAbJ--3" value="GameObject DrawPile" style="text;align=left;verticalAlign=top;spacingLeft=4;spacingRight=4;overflow=hidden;rotatable=0;points=[[0,0.5],[1,0.5]];portConstraint=eastwest;rounded=0;shadow=0;html=0;fontSize=10;" parent="zkfFHV4jXpPFQw0GAbJ--0" vertex="1">
          <mxGeometry y="116" width="188" height="15" as="geometry" />
        </mxCell>
        <mxCell id="YYJl7h6oAbYJ0HVccWD1-6" value="GameObject DiscardPile" style="text;align=left;verticalAlign=top;spacingLeft=4;spacingRight=4;overflow=hidden;rotatable=0;points=[[0,0.5],[1,0.5]];portConstraint=eastwest;rounded=0;shadow=0;html=0;fontSize=10;" parent="zkfFHV4jXpPFQw0GAbJ--0" vertex="1">
          <mxGeometry y="131" width="188" height="15" as="geometry" />
        </mxCell>
        <mxCell id="zkfFHV4jXpPFQw0GAbJ--5" value="GameObject CardsInHand&#xa;" style="text;align=left;verticalAlign=top;spacingLeft=4;spacingRight=4;overflow=hidden;rotatable=0;points=[[0,0.5],[1,0.5]];portConstraint=eastwest;fontSize=10;" parent="zkfFHV4jXpPFQw0GAbJ--0" vertex="1">
          <mxGeometry y="146" width="188" height="15" as="geometry" />
        </mxCell>
        <mxCell id="YYJl7h6oAbYJ0HVccWD1-19" value="//" style="text;align=left;verticalAlign=top;spacingLeft=4;spacingRight=4;overflow=hidden;rotatable=0;points=[[0,0.5],[1,0.5]];portConstraint=eastwest;fontSize=10;" parent="zkfFHV4jXpPFQw0GAbJ--0" vertex="1">
          <mxGeometry y="161" width="188" height="15" as="geometry" />
        </mxCell>
        <mxCell id="YYJl7h6oAbYJ0HVccWD1-8" value="List&lt;Card&gt; DrawPileList" style="text;align=left;verticalAlign=top;spacingLeft=4;spacingRight=4;overflow=hidden;rotatable=0;points=[[0,0.5],[1,0.5]];portConstraint=eastwest;fontSize=10;" parent="zkfFHV4jXpPFQw0GAbJ--0" vertex="1">
          <mxGeometry y="176" width="188" height="15" as="geometry" />
        </mxCell>
        <mxCell id="YYJl7h6oAbYJ0HVccWD1-20" value="List&lt;Card&gt; DiscardPileList" style="text;align=left;verticalAlign=top;spacingLeft=4;spacingRight=4;overflow=hidden;rotatable=0;points=[[0,0.5],[1,0.5]];portConstraint=eastwest;fontSize=10;" parent="zkfFHV4jXpPFQw0GAbJ--0" vertex="1">
          <mxGeometry y="191" width="188" height="15" as="geometry" />
        </mxCell>
        <mxCell id="YYJl7h6oAbYJ0HVccWD1-10" value="List&lt;Card&gt; CardsInHandList" style="text;align=left;verticalAlign=top;spacingLeft=4;spacingRight=4;overflow=hidden;rotatable=0;points=[[0,0.5],[1,0.5]];portConstraint=eastwest;fontSize=10;" parent="zkfFHV4jXpPFQw0GAbJ--0" vertex="1">
          <mxGeometry y="206" width="188" height="15" as="geometry" />
        </mxCell>
        <mxCell id="YYJl7h6oAbYJ0HVccWD1-21" value="List&lt;Card&gt; CardsOnBoard&#xa;" style="text;align=left;verticalAlign=top;spacingLeft=4;spacingRight=4;overflow=hidden;rotatable=0;points=[[0,0.5],[1,0.5]];portConstraint=eastwest;fontSize=10;" parent="zkfFHV4jXpPFQw0GAbJ--0" vertex="1">
          <mxGeometry y="221" width="188" height="15" as="geometry" />
        </mxCell>
        <mxCell id="YYJl7h6oAbYJ0HVccWD1-22" value="//" style="text;align=left;verticalAlign=top;spacingLeft=4;spacingRight=4;overflow=hidden;rotatable=0;points=[[0,0.5],[1,0.5]];portConstraint=eastwest;fontSize=10;" parent="zkfFHV4jXpPFQw0GAbJ--0" vertex="1">
          <mxGeometry y="236" width="188" height="15" as="geometry" />
        </mxCell>
        <mxCell id="YYJl7h6oAbYJ0HVccWD1-17" value="Vector3 startPosition&#xa;" style="text;align=left;verticalAlign=top;spacingLeft=4;spacingRight=4;overflow=hidden;rotatable=0;points=[[0,0.5],[1,0.5]];portConstraint=eastwest;fontSize=10;" parent="zkfFHV4jXpPFQw0GAbJ--0" vertex="1">
          <mxGeometry y="251" width="188" height="15" as="geometry" />
        </mxCell>
        <mxCell id="YYJl7h6oAbYJ0HVccWD1-14" value="bool PlayerTurn&#xa;" style="text;align=left;verticalAlign=top;spacingLeft=4;spacingRight=4;overflow=hidden;rotatable=0;points=[[0,0.5],[1,0.5]];portConstraint=eastwest;fontSize=10;" parent="zkfFHV4jXpPFQw0GAbJ--0" vertex="1">
          <mxGeometry y="266" width="188" height="15" as="geometry" />
        </mxCell>
        <mxCell id="YYJl7h6oAbYJ0HVccWD1-13" value="" style="line;html=1;strokeWidth=1;align=left;verticalAlign=middle;spacingTop=-1;spacingLeft=3;spacingRight=3;rotatable=0;labelPosition=right;points=[];portConstraint=eastwest;fontSize=10;" parent="zkfFHV4jXpPFQw0GAbJ--0" vertex="1">
          <mxGeometry y="281" width="188" height="8" as="geometry" />
        </mxCell>
        <mxCell id="YYJl7h6oAbYJ0HVccWD1-23" value="void Awake()" style="text;align=left;verticalAlign=top;spacingLeft=4;spacingRight=4;overflow=hidden;rotatable=0;points=[[0,0.5],[1,0.5]];portConstraint=eastwest;fontSize=10;" parent="zkfFHV4jXpPFQw0GAbJ--0" vertex="1">
          <mxGeometry y="289" width="188" height="15" as="geometry" />
        </mxCell>
        <mxCell id="YYJl7h6oAbYJ0HVccWD1-24" value="void Update()" style="text;align=left;verticalAlign=top;spacingLeft=4;spacingRight=4;overflow=hidden;rotatable=0;points=[[0,0.5],[1,0.5]];portConstraint=eastwest;fontSize=10;" parent="zkfFHV4jXpPFQw0GAbJ--0" vertex="1">
          <mxGeometry y="304" width="188" height="15" as="geometry" />
        </mxCell>
        <mxCell id="YYJl7h6oAbYJ0HVccWD1-30" value="void InitDeck()" style="text;align=left;verticalAlign=top;spacingLeft=4;spacingRight=4;overflow=hidden;rotatable=0;points=[[0,0.5],[1,0.5]];portConstraint=eastwest;fontSize=10;" parent="zkfFHV4jXpPFQw0GAbJ--0" vertex="1">
          <mxGeometry y="319" width="188" height="15" as="geometry" />
        </mxCell>
        <mxCell id="YYJl7h6oAbYJ0HVccWD1-32" value="void ResetBattle()" style="text;align=left;verticalAlign=top;spacingLeft=4;spacingRight=4;overflow=hidden;rotatable=0;points=[[0,0.5],[1,0.5]];portConstraint=eastwest;fontSize=10;" parent="zkfFHV4jXpPFQw0GAbJ--0" vertex="1">
          <mxGeometry y="334" width="188" height="15" as="geometry" />
        </mxCell>
        <mxCell id="YYJl7h6oAbYJ0HVccWD1-26" value="void Shuffle()&#xa;" style="text;align=left;verticalAlign=top;spacingLeft=4;spacingRight=4;overflow=hidden;rotatable=0;points=[[0,0.5],[1,0.5]];portConstraint=eastwest;fontSize=10;" parent="zkfFHV4jXpPFQw0GAbJ--0" vertex="1">
          <mxGeometry y="349" width="188" height="15" as="geometry" />
        </mxCell>
        <mxCell id="YYJl7h6oAbYJ0HVccWD1-58" value="void SortCardsInHand()" style="text;align=left;verticalAlign=top;spacingLeft=4;spacingRight=4;overflow=hidden;rotatable=0;points=[[0,0.5],[1,0.5]];portConstraint=eastwest;fontSize=10;" parent="zkfFHV4jXpPFQw0GAbJ--0" vertex="1">
          <mxGeometry y="364" width="188" height="16" as="geometry" />
        </mxCell>
        <mxCell id="YYJl7h6oAbYJ0HVccWD1-25" value="void Draw(int)&#xa;" style="text;align=left;verticalAlign=top;spacingLeft=4;spacingRight=4;overflow=hidden;rotatable=0;points=[[0,0.5],[1,0.5]];portConstraint=eastwest;fontSize=10;" parent="zkfFHV4jXpPFQw0GAbJ--0" vertex="1">
          <mxGeometry y="380" width="188" height="15" as="geometry" />
        </mxCell>
        <mxCell id="YYJl7h6oAbYJ0HVccWD1-59" value="//&#xa;" style="text;align=left;verticalAlign=top;spacingLeft=4;spacingRight=4;overflow=hidden;rotatable=0;points=[[0,0.5],[1,0.5]];portConstraint=eastwest;fontSize=10;" parent="zkfFHV4jXpPFQw0GAbJ--0" vertex="1">
          <mxGeometry y="395" width="188" height="15" as="geometry" />
        </mxCell>
        <mxCell id="YYJl7h6oAbYJ0HVccWD1-27" value="void PlayerTurnBegin()&#xa;" style="text;align=left;verticalAlign=top;spacingLeft=4;spacingRight=4;overflow=hidden;rotatable=0;points=[[0,0.5],[1,0.5]];portConstraint=eastwest;fontSize=10;" parent="zkfFHV4jXpPFQw0GAbJ--0" vertex="1">
          <mxGeometry y="410" width="188" height="15" as="geometry" />
        </mxCell>
        <mxCell id="YYJl7h6oAbYJ0HVccWD1-28" value="void PlayerTurnEnd()&#xa;" style="text;align=left;verticalAlign=top;spacingLeft=4;spacingRight=4;overflow=hidden;rotatable=0;points=[[0,0.5],[1,0.5]];portConstraint=eastwest;fontSize=10;" parent="zkfFHV4jXpPFQw0GAbJ--0" vertex="1">
          <mxGeometry y="425" width="188" height="15" as="geometry" />
        </mxCell>
        <mxCell id="YYJl7h6oAbYJ0HVccWD1-29" value="void MoveCardToDiscardPile()" style="text;align=left;verticalAlign=top;spacingLeft=4;spacingRight=4;overflow=hidden;rotatable=0;points=[[0,0.5],[1,0.5]];portConstraint=eastwest;fontSize=10;" parent="zkfFHV4jXpPFQw0GAbJ--0" vertex="1">
          <mxGeometry y="440" width="188" height="15" as="geometry" />
        </mxCell>
        <mxCell id="YYJl7h6oAbYJ0HVccWD1-31" value="void MoveCardToDrawPile()&#xa;" style="text;align=left;verticalAlign=top;spacingLeft=4;spacingRight=4;overflow=hidden;rotatable=0;points=[[0,0.5],[1,0.5]];portConstraint=eastwest;fontSize=10;" parent="zkfFHV4jXpPFQw0GAbJ--0" vertex="1">
          <mxGeometry y="455" width="188" height="16" as="geometry" />
        </mxCell>
        <mxCell id="YYJl7h6oAbYJ0HVccWD1-56" value="void MoveCardToHand()&#xa;" style="text;align=left;verticalAlign=top;spacingLeft=4;spacingRight=4;overflow=hidden;rotatable=0;points=[[0,0.5],[1,0.5]];portConstraint=eastwest;fontSize=10;" parent="zkfFHV4jXpPFQw0GAbJ--0" vertex="1">
          <mxGeometry y="471" width="188" height="16" as="geometry" />
        </mxCell>
        <mxCell id="YYJl7h6oAbYJ0HVccWD1-57" value="void MoveCardToBoard()" style="text;align=left;verticalAlign=top;spacingLeft=4;spacingRight=4;overflow=hidden;rotatable=0;points=[[0,0.5],[1,0.5]];portConstraint=eastwest;fontSize=10;" parent="zkfFHV4jXpPFQw0GAbJ--0" vertex="1">
          <mxGeometry y="487" width="188" height="16" as="geometry" />
        </mxCell>
        <mxCell id="YYJl7h6oAbYJ0HVccWD1-62" value="&lt;font style=&quot;font-size: 10px;&quot;&gt;&lt;font style=&quot;font-size: 10px;&quot;&gt;&lt;b&gt;InitDeck&lt;/b&gt;()&amp;nbsp;&lt;br style=&quot;font-size: 10px;&quot;&gt;在每局游戏开始时使用，生成玩家的默认牌库，之后游戏不调用该方程。生成所有牌的gameObject。&lt;br style=&quot;font-size: 10px;&quot;&gt;&lt;br style=&quot;font-size: 10px;&quot;&gt;&lt;b&gt;InitBattle&lt;/b&gt;()&lt;br style=&quot;font-size: 10px;&quot;&gt;每次玩家进入新一关时使用，设置新的敌人。shuffle抽牌堆&lt;br&gt;&lt;br&gt;&lt;b&gt;PlayerTurnBegin&lt;/b&gt;&lt;br&gt;先对场上的card call playerTurnBegin。&lt;br&gt;调用draw根据drawNum抽牌（draw会移动）&lt;br&gt;&lt;br&gt;&lt;b&gt;PlayerTurnEnd&lt;/b&gt;&lt;br&gt;对场上牌call card.CardAction(Enemy.EnemyCards, int CardIndex), 再call card.CardActionEnd,&lt;br&gt;&lt;br&gt;&lt;b&gt;EnemyTurnBegin&lt;/b&gt;&lt;br&gt;call enemy.&lt;br&gt;&lt;br&gt;&lt;br&gt;【helper function】&lt;br style=&quot;font-size: 10px;&quot;&gt;&lt;b&gt;Shuffle&lt;/b&gt;()&lt;br style=&quot;font-size: 10px;&quot;&gt;对抽牌堆进行洗牌&lt;br style=&quot;font-size: 10px;&quot;&gt;&lt;br style=&quot;font-size: 10px;&quot;&gt;&lt;b&gt;Draw&lt;/b&gt;(NumToDraw）&lt;br style=&quot;font-size: 10px;&quot;&gt;玩家抽牌时使用，用MoveCardToHand方程将牌移动到玩家手牌，并用SortCardsInHand将玩家手牌重新排列&lt;br&gt;&lt;/font&gt;&lt;br&gt;&lt;b&gt;MoveCardToHand&lt;/b&gt;（card）&lt;br&gt;改card位置，改card list，call card.CardMoveToHand&amp;nbsp;&lt;br style=&quot;font-size: 10px;&quot;&gt;&lt;br&gt;&lt;b&gt;MoveCardToBoard&lt;/b&gt;（int CardIndex, card）&lt;br&gt;根据position改card位置，改list。位置确定后再call card.CardMoveToBoard&lt;br&gt;减少player.energy by card.enegyCost&lt;/font&gt;&lt;br style=&quot;font-size: 10px;&quot;&gt;&lt;div style=&quot;text-align: justify; font-size: 10px;&quot;&gt;&lt;/div&gt;" style="rounded=0;whiteSpace=wrap;html=1;align=left;fontSize=10;" parent="WIyWlLk6GJQsqaUBKTNV-1" vertex="1">
          <mxGeometry x="1130" y="340" width="230" height="610" as="geometry" />
        </mxCell>
        <mxCell id="YYJl7h6oAbYJ0HVccWD1-64" value="Card&#xa;&lt;&lt;interface&gt;&gt;" style="swimlane;fontStyle=2;align=center;verticalAlign=top;childLayout=stackLayout;horizontal=1;startSize=40;horizontalStack=0;resizeParent=1;resizeLast=0;collapsible=1;marginBottom=0;rounded=0;shadow=0;strokeWidth=1;fontSize=12;" parent="WIyWlLk6GJQsqaUBKTNV-1" vertex="1">
          <mxGeometry x="1381" y="340" width="180" height="530" as="geometry">
            <mxRectangle x="230" y="140" width="160" height="26" as="alternateBounds" />
          </mxGeometry>
        </mxCell>
        <mxCell id="YYJl7h6oAbYJ0HVccWD1-65" value="Camera myCamera" style="text;align=left;verticalAlign=top;spacingLeft=4;spacingRight=4;overflow=hidden;rotatable=0;points=[[0,0.5],[1,0.5]];portConstraint=eastwest;fontSize=10;" parent="YYJl7h6oAbYJ0HVccWD1-64" vertex="1">
          <mxGeometry y="40" width="180" height="15" as="geometry" />
        </mxCell>
        <mxCell id="YYJl7h6oAbYJ0HVccWD1-66" value="GameObject CardFaceUI&#xa;" style="text;align=left;verticalAlign=top;spacingLeft=4;spacingRight=4;overflow=hidden;rotatable=0;points=[[0,0.5],[1,0.5]];portConstraint=eastwest;rounded=0;shadow=0;html=0;fontSize=10;" parent="YYJl7h6oAbYJ0HVccWD1-64" vertex="1">
          <mxGeometry y="55" width="180" height="15" as="geometry" />
        </mxCell>
        <mxCell id="YYJl7h6oAbYJ0HVccWD1-67" value="GameObject CardBackUI&#xa;" style="text;align=left;verticalAlign=top;spacingLeft=4;spacingRight=4;overflow=hidden;rotatable=0;points=[[0,0.5],[1,0.5]];portConstraint=eastwest;rounded=0;shadow=0;html=0;fontSize=10;" parent="YYJl7h6oAbYJ0HVccWD1-64" vertex="1">
          <mxGeometry y="70" width="180" height="15" as="geometry" />
        </mxCell>
        <mxCell id="YYJl7h6oAbYJ0HVccWD1-68" value="GameObject LifeSpanUI" style="text;align=left;verticalAlign=top;spacingLeft=4;spacingRight=4;overflow=hidden;rotatable=0;points=[[0,0.5],[1,0.5]];portConstraint=eastwest;rounded=0;shadow=0;html=0;fontSize=10;" parent="YYJl7h6oAbYJ0HVccWD1-64" vertex="1">
          <mxGeometry y="85" width="180" height="15" as="geometry" />
        </mxCell>
        <mxCell id="YYJl7h6oAbYJ0HVccWD1-94" value="GameObject ATKUI&#xa;" style="text;align=left;verticalAlign=top;spacingLeft=4;spacingRight=4;overflow=hidden;rotatable=0;points=[[0,0.5],[1,0.5]];portConstraint=eastwest;rounded=0;shadow=0;html=0;fontSize=10;" parent="YYJl7h6oAbYJ0HVccWD1-64" vertex="1">
          <mxGeometry y="100" width="180" height="15" as="geometry" />
        </mxCell>
        <mxCell id="YYJl7h6oAbYJ0HVccWD1-95" value="GameObject AbilityDescribetionUI" style="text;align=left;verticalAlign=top;spacingLeft=4;spacingRight=4;overflow=hidden;rotatable=0;points=[[0,0.5],[1,0.5]];portConstraint=eastwest;rounded=0;shadow=0;html=0;fontSize=10;" parent="YYJl7h6oAbYJ0HVccWD1-64" vertex="1">
          <mxGeometry y="115" width="180" height="15" as="geometry" />
        </mxCell>
        <mxCell id="YYJl7h6oAbYJ0HVccWD1-152" value="BattleSceneManager BattleSceneManager" style="text;align=left;verticalAlign=top;spacingLeft=4;spacingRight=4;overflow=hidden;rotatable=0;points=[[0,0.5],[1,0.5]];portConstraint=eastwest;rounded=0;shadow=0;html=0;fontSize=10;" parent="YYJl7h6oAbYJ0HVccWD1-64" vertex="1">
          <mxGeometry y="130" width="180" height="15" as="geometry" />
        </mxCell>
        <mxCell id="YYJl7h6oAbYJ0HVccWD1-70" value="//" style="text;align=left;verticalAlign=top;spacingLeft=4;spacingRight=4;overflow=hidden;rotatable=0;points=[[0,0.5],[1,0.5]];portConstraint=eastwest;fontSize=10;" parent="YYJl7h6oAbYJ0HVccWD1-64" vertex="1">
          <mxGeometry y="145" width="180" height="15" as="geometry" />
        </mxCell>
        <mxCell id="YYJl7h6oAbYJ0HVccWD1-69" value="Int ID&#xa;" style="text;align=left;verticalAlign=top;spacingLeft=4;spacingRight=4;overflow=hidden;rotatable=0;points=[[0,0.5],[1,0.5]];portConstraint=eastwest;fontSize=10;" parent="YYJl7h6oAbYJ0HVccWD1-64" vertex="1">
          <mxGeometry y="160" width="180" height="15" as="geometry" />
        </mxCell>
        <mxCell id="YYJl7h6oAbYJ0HVccWD1-71" value="Int MaxHP" style="text;align=left;verticalAlign=top;spacingLeft=4;spacingRight=4;overflow=hidden;rotatable=0;points=[[0,0.5],[1,0.5]];portConstraint=eastwest;fontSize=10;" parent="YYJl7h6oAbYJ0HVccWD1-64" vertex="1">
          <mxGeometry y="175" width="180" height="15" as="geometry" />
        </mxCell>
        <mxCell id="YYJl7h6oAbYJ0HVccWD1-72" value="Int CurrentHP" style="text;align=left;verticalAlign=top;spacingLeft=4;spacingRight=4;overflow=hidden;rotatable=0;points=[[0,0.5],[1,0.5]];portConstraint=eastwest;fontSize=10;" parent="YYJl7h6oAbYJ0HVccWD1-64" vertex="1">
          <mxGeometry y="190" width="180" height="15" as="geometry" />
        </mxCell>
        <mxCell id="YYJl7h6oAbYJ0HVccWD1-145" value="Int ATK: attack amount" style="text;align=left;verticalAlign=top;spacingLeft=4;spacingRight=4;overflow=hidden;rotatable=0;points=[[0,0.5],[1,0.5]];portConstraint=eastwest;fontSize=10;" parent="YYJl7h6oAbYJ0HVccWD1-64" vertex="1">
          <mxGeometry y="205" width="180" height="15" as="geometry" />
        </mxCell>
        <mxCell id="YYJl7h6oAbYJ0HVccWD1-148" value="Int EnergyCost" style="text;align=left;verticalAlign=top;spacingLeft=4;spacingRight=4;overflow=hidden;rotatable=0;points=[[0,0.5],[1,0.5]];portConstraint=eastwest;fontSize=10;" parent="YYJl7h6oAbYJ0HVccWD1-64" vertex="1">
          <mxGeometry y="220" width="180" height="15" as="geometry" />
        </mxCell>
        <mxCell id="YYJl7h6oAbYJ0HVccWD1-146" value="Enum CardType:[Monster,Magic]" style="text;align=left;verticalAlign=top;spacingLeft=4;spacingRight=4;overflow=hidden;rotatable=0;points=[[0,0.5],[1,0.5]];portConstraint=eastwest;fontSize=10;" parent="YYJl7h6oAbYJ0HVccWD1-64" vertex="1">
          <mxGeometry y="235" width="180" height="15" as="geometry" />
        </mxCell>
        <mxCell id="YYJl7h6oAbYJ0HVccWD1-153" value="Enum Owner:[Player, Enemy]" style="text;align=left;verticalAlign=top;spacingLeft=4;spacingRight=4;overflow=hidden;rotatable=0;points=[[0,0.5],[1,0.5]];portConstraint=eastwest;fontSize=10;" parent="YYJl7h6oAbYJ0HVccWD1-64" vertex="1">
          <mxGeometry y="250" width="180" height="15" as="geometry" />
        </mxCell>
        <mxCell id="U_VtNrL4AbAIC2CS7Lok-0" value="Int CardPositionIndex" style="text;align=left;verticalAlign=top;spacingLeft=4;spacingRight=4;overflow=hidden;rotatable=0;points=[[0,0.5],[1,0.5]];portConstraint=eastwest;fontSize=10;" vertex="1" parent="YYJl7h6oAbYJ0HVccWD1-64">
          <mxGeometry y="265" width="180" height="15" as="geometry" />
        </mxCell>
        <mxCell id="YYJl7h6oAbYJ0HVccWD1-149" value="//" style="text;align=left;verticalAlign=top;spacingLeft=4;spacingRight=4;overflow=hidden;rotatable=0;points=[[0,0.5],[1,0.5]];portConstraint=eastwest;fontSize=10;" parent="YYJl7h6oAbYJ0HVccWD1-64" vertex="1">
          <mxGeometry y="280" width="180" height="15" as="geometry" />
        </mxCell>
        <mxCell id="YYJl7h6oAbYJ0HVccWD1-74" value="List&lt;Card&gt; CardsOnBoard&#xa;" style="text;align=left;verticalAlign=top;spacingLeft=4;spacingRight=4;overflow=hidden;rotatable=0;points=[[0,0.5],[1,0.5]];portConstraint=eastwest;fontSize=10;" parent="YYJl7h6oAbYJ0HVccWD1-64" vertex="1">
          <mxGeometry y="295" width="180" height="15" as="geometry" />
        </mxCell>
        <mxCell id="YYJl7h6oAbYJ0HVccWD1-75" value="List&lt;Card&gt; EnemyCardOnBoard&#xa;" style="text;align=left;verticalAlign=top;spacingLeft=4;spacingRight=4;overflow=hidden;rotatable=0;points=[[0,0.5],[1,0.5]];portConstraint=eastwest;fontSize=10;" parent="YYJl7h6oAbYJ0HVccWD1-64" vertex="1">
          <mxGeometry y="310" width="180" height="15" as="geometry" />
        </mxCell>
        <mxCell id="U_VtNrL4AbAIC2CS7Lok-5" value="List&lt;Buff&gt; OwnBuffList ??" style="text;align=left;verticalAlign=top;spacingLeft=4;spacingRight=4;overflow=hidden;rotatable=0;points=[[0,0.5],[1,0.5]];portConstraint=eastwest;fontSize=10;" vertex="1" parent="YYJl7h6oAbYJ0HVccWD1-64">
          <mxGeometry y="325" width="180" height="15" as="geometry" />
        </mxCell>
        <mxCell id="YYJl7h6oAbYJ0HVccWD1-76" value="//" style="text;align=left;verticalAlign=top;spacingLeft=4;spacingRight=4;overflow=hidden;rotatable=0;points=[[0,0.5],[1,0.5]];portConstraint=eastwest;fontSize=10;" parent="YYJl7h6oAbYJ0HVccWD1-64" vertex="1">
          <mxGeometry y="340" width="180" height="15" as="geometry" />
        </mxCell>
        <mxCell id="YYJl7h6oAbYJ0HVccWD1-77" value="Vector3 startPosition&#xa;" style="text;align=left;verticalAlign=top;spacingLeft=4;spacingRight=4;overflow=hidden;rotatable=0;points=[[0,0.5],[1,0.5]];portConstraint=eastwest;fontSize=10;" parent="YYJl7h6oAbYJ0HVccWD1-64" vertex="1">
          <mxGeometry y="355" width="180" height="15" as="geometry" />
        </mxCell>
        <mxCell id="YYJl7h6oAbYJ0HVccWD1-78" value="bool PlayerTurn&#xa;" style="text;align=left;verticalAlign=top;spacingLeft=4;spacingRight=4;overflow=hidden;rotatable=0;points=[[0,0.5],[1,0.5]];portConstraint=eastwest;fontSize=10;" parent="YYJl7h6oAbYJ0HVccWD1-64" vertex="1">
          <mxGeometry y="370" width="180" height="15" as="geometry" />
        </mxCell>
        <mxCell id="YYJl7h6oAbYJ0HVccWD1-79" value="" style="line;html=1;strokeWidth=1;align=left;verticalAlign=middle;spacingTop=-1;spacingLeft=3;spacingRight=3;rotatable=0;labelPosition=right;points=[];portConstraint=eastwest;fontSize=8;" parent="YYJl7h6oAbYJ0HVccWD1-64" vertex="1">
          <mxGeometry y="385" width="180" height="8" as="geometry" />
        </mxCell>
        <mxCell id="YYJl7h6oAbYJ0HVccWD1-147" value="+ PlayerTurnBegin&#xa;+ CardAction&#xa;+ CardActionEnd&#xa;+ CardMoveToDiscardPile&#xa;+ vitrual CardMoveToDrawPile&#xa;+ vitrual CardMoveToBoard&#xa;+ vitrual CardMoveToHand&#xa;//&#xa;cardAbility&#xa;" style="text;align=left;verticalAlign=top;spacingLeft=4;spacingRight=4;overflow=hidden;rotatable=0;points=[[0,0.5],[1,0.5]];portConstraint=eastwest;fontSize=9;spacing=2;spacingBottom=0;spacingTop=0;" parent="YYJl7h6oAbYJ0HVccWD1-64" vertex="1">
          <mxGeometry y="393" width="180" height="137" as="geometry" />
        </mxCell>
        <mxCell id="YYJl7h6oAbYJ0HVccWD1-100" value="Player" style="swimlane;fontStyle=2;align=center;verticalAlign=top;childLayout=stackLayout;horizontal=1;startSize=26;horizontalStack=0;resizeParent=1;resizeLast=0;collapsible=1;marginBottom=0;rounded=0;shadow=0;strokeWidth=1;fontSize=12;" parent="WIyWlLk6GJQsqaUBKTNV-1" vertex="1">
          <mxGeometry x="730" y="340" width="188" height="210" as="geometry">
            <mxRectangle x="230" y="140" width="160" height="26" as="alternateBounds" />
          </mxGeometry>
        </mxCell>
        <mxCell id="YYJl7h6oAbYJ0HVccWD1-101" value="+ cardList&#xa;+ energy:&#xa;+ Int CurrentHP&#xa;drawNum&#xa;" style="text;align=left;verticalAlign=top;spacingLeft=4;spacingRight=4;overflow=hidden;rotatable=0;points=[[0,0.5],[1,0.5]];portConstraint=eastwest;fontSize=9;" parent="YYJl7h6oAbYJ0HVccWD1-100" vertex="1">
          <mxGeometry y="26" width="188" height="74" as="geometry" />
        </mxCell>
        <mxCell id="YYJl7h6oAbYJ0HVccWD1-119" value="" style="line;html=1;strokeWidth=1;align=left;verticalAlign=middle;spacingTop=-1;spacingLeft=3;spacingRight=3;rotatable=0;labelPosition=right;points=[];portConstraint=eastwest;fontSize=8;" parent="YYJl7h6oAbYJ0HVccWD1-100" vertex="1">
          <mxGeometry y="100" width="188" height="8" as="geometry" />
        </mxCell>
        <mxCell id="YYJl7h6oAbYJ0HVccWD1-135" value="Enemy" style="swimlane;fontStyle=2;align=center;verticalAlign=top;childLayout=stackLayout;horizontal=1;startSize=26;horizontalStack=0;resizeParent=1;resizeLast=0;collapsible=1;marginBottom=0;rounded=0;shadow=0;strokeWidth=1;fontSize=12;" parent="WIyWlLk6GJQsqaUBKTNV-1" vertex="1">
          <mxGeometry x="525" y="340" width="188" height="210" as="geometry">
            <mxRectangle x="230" y="140" width="160" height="26" as="alternateBounds" />
          </mxGeometry>
        </mxCell>
        <mxCell id="YYJl7h6oAbYJ0HVccWD1-136" value="+ Int CurrentHP&#xa;List&lt;Card&gt; Cards" style="text;align=left;verticalAlign=top;spacingLeft=4;spacingRight=4;overflow=hidden;rotatable=0;points=[[0,0.5],[1,0.5]];portConstraint=eastwest;fontSize=9;" parent="YYJl7h6oAbYJ0HVccWD1-135" vertex="1">
          <mxGeometry y="26" width="188" height="74" as="geometry" />
        </mxCell>
        <mxCell id="YYJl7h6oAbYJ0HVccWD1-137" value="" style="line;html=1;strokeWidth=1;align=left;verticalAlign=middle;spacingTop=-1;spacingLeft=3;spacingRight=3;rotatable=0;labelPosition=right;points=[];portConstraint=eastwest;fontSize=8;" parent="YYJl7h6oAbYJ0HVccWD1-135" vertex="1">
          <mxGeometry y="100" width="188" height="8" as="geometry" />
        </mxCell>
        <mxCell id="YYJl7h6oAbYJ0HVccWD1-139" value="Buff" style="swimlane;fontStyle=2;align=center;verticalAlign=top;childLayout=stackLayout;horizontal=1;startSize=26;horizontalStack=0;resizeParent=1;resizeLast=0;collapsible=1;marginBottom=0;rounded=0;shadow=0;strokeWidth=1;fontSize=12;" parent="WIyWlLk6GJQsqaUBKTNV-1" vertex="1">
          <mxGeometry x="530" y="590" width="188" height="360" as="geometry">
            <mxRectangle x="230" y="140" width="160" height="26" as="alternateBounds" />
          </mxGeometry>
        </mxCell>
        <mxCell id="YYJl7h6oAbYJ0HVccWD1-140" value="+ int BuffID&#xa;+ int BuffLayerCounter&#xa;&#xa;Enum BuffActivePrecedure&#xa;//&#xa;Enum ExistType 持续类型&#xa;Enum TriggerTime 触发时机&#xa;Enum TargetType ??&#xa;Fighter Target&#xa;+ int ExistCounter&#xa;+ LayerCounter&#xa;" style="text;align=left;verticalAlign=top;spacingLeft=4;spacingRight=4;overflow=hidden;rotatable=0;points=[[0,0.5],[1,0.5]];portConstraint=eastwest;fontSize=9;" parent="YYJl7h6oAbYJ0HVccWD1-139" vertex="1">
          <mxGeometry y="26" width="188" height="124" as="geometry" />
        </mxCell>
        <mxCell id="YYJl7h6oAbYJ0HVccWD1-141" value="" style="line;html=1;strokeWidth=1;align=left;verticalAlign=middle;spacingTop=-1;spacingLeft=3;spacingRight=3;rotatable=0;labelPosition=right;points=[];portConstraint=eastwest;fontSize=8;" parent="YYJl7h6oAbYJ0HVccWD1-139" vertex="1">
          <mxGeometry y="150" width="188" height="8" as="geometry" />
        </mxCell>
        <mxCell id="YYJl7h6oAbYJ0HVccWD1-142" value="+ void ActiveBuff(CurrentPrecedure)&#xa;+ void InitialBuff()&#xa;" style="text;align=left;verticalAlign=top;spacingLeft=4;spacingRight=4;overflow=hidden;rotatable=0;points=[[0,0.5],[1,0.5]];portConstraint=eastwest;fontSize=9;" parent="YYJl7h6oAbYJ0HVccWD1-139" vertex="1">
          <mxGeometry y="158" width="188" height="42" as="geometry" />
        </mxCell>
        <mxCell id="YYJl7h6oAbYJ0HVccWD1-143" value="&lt;div style=&quot;text-align: left; font-size: 11px;&quot;&gt;&lt;span style=&quot;background-color: initial; font-size: 11px;&quot;&gt;&lt;font style=&quot;font-size: 11px;&quot;&gt;what is a buff&lt;/font&gt;&lt;/span&gt;&lt;/div&gt;&lt;div style=&quot;text-align: left; font-size: 11px;&quot;&gt;&lt;span style=&quot;background-color: initial; font-size: 11px;&quot;&gt;&lt;font style=&quot;font-size: 11px;&quot;&gt;buff is not an ability&lt;/font&gt;&lt;/span&gt;&lt;/div&gt;&lt;div style=&quot;text-align: left; font-size: 11px;&quot;&gt;&lt;span style=&quot;background-color: initial; font-size: 11px;&quot;&gt;&lt;font style=&quot;font-size: 11px;&quot;&gt;buff can be created by an ability&lt;/font&gt;&lt;/span&gt;&lt;/div&gt;&lt;div style=&quot;text-align: left; font-size: 11px;&quot;&gt;&lt;span style=&quot;background-color: initial; font-size: 11px;&quot;&gt;&lt;font style=&quot;font-size: 11px;&quot;&gt;buff last for times, turns, or for the whole game&lt;/font&gt;&lt;/span&gt;&lt;/div&gt;&lt;div style=&quot;text-align: left; font-size: 11px;&quot;&gt;&lt;font style=&quot;font-size: 11px;&quot;&gt;&lt;br style=&quot;font-size: 11px;&quot;&gt;&lt;/font&gt;&lt;/div&gt;&lt;div style=&quot;text-align: left; font-size: 11px;&quot;&gt;&lt;font style=&quot;font-size: 11px;&quot;&gt;&lt;br style=&quot;font-size: 11px;&quot;&gt;&lt;/font&gt;&lt;/div&gt;&lt;div style=&quot;text-align: left; font-size: 11px;&quot;&gt;&lt;span style=&quot;background-color: initial; font-size: 11px;&quot;&gt;&lt;font style=&quot;font-size: 11px;&quot;&gt;Buff creator&lt;/font&gt;&lt;/span&gt;&lt;/div&gt;&lt;div style=&quot;text-align: left; font-size: 11px;&quot;&gt;&lt;span style=&quot;background-color: initial; font-size: 11px;&quot;&gt;&lt;font style=&quot;font-size: 11px;&quot;&gt;- card（magic or card monster）&lt;/font&gt;&lt;/span&gt;&lt;/div&gt;&lt;div style=&quot;text-align: left; font-size: 11px;&quot;&gt;&lt;span style=&quot;background-color: initial; font-size: 11px;&quot;&gt;&lt;font style=&quot;font-size: 11px;&quot;&gt;- item&lt;/font&gt;&lt;/span&gt;&lt;/div&gt;&lt;div style=&quot;text-align: left; font-size: 11px;&quot;&gt;&lt;span style=&quot;background-color: initial; font-size: 11px;&quot;&gt;&lt;font style=&quot;font-size: 11px;&quot;&gt;- enemy&lt;/font&gt;&lt;/span&gt;&lt;/div&gt;&lt;div style=&quot;text-align: left; font-size: 11px;&quot;&gt;&lt;font style=&quot;font-size: 11px;&quot;&gt;&lt;br style=&quot;font-size: 11px;&quot;&gt;&lt;/font&gt;&lt;/div&gt;&lt;div style=&quot;text-align: left; font-size: 11px;&quot;&gt;&lt;span style=&quot;background-color: initial; font-size: 11px;&quot;&gt;&lt;font style=&quot;font-size: 11px;&quot;&gt;Buff existence&lt;/font&gt;&lt;/span&gt;&lt;/div&gt;&lt;div style=&quot;text-align: left; font-size: 11px;&quot;&gt;&lt;span style=&quot;background-color: initial; font-size: 11px;&quot;&gt;&lt;font style=&quot;font-size: 11px;&quot;&gt;- always exist&lt;/font&gt;&lt;/span&gt;&lt;/div&gt;&lt;div style=&quot;text-align: left; font-size: 11px;&quot;&gt;&lt;span style=&quot;background-color: initial; font-size: 11px;&quot;&gt;&lt;font style=&quot;font-size: 11px;&quot;&gt;- exist for num of turns&lt;/font&gt;&lt;/span&gt;&lt;/div&gt;&lt;div style=&quot;text-align: left; font-size: 11px;&quot;&gt;&lt;span style=&quot;background-color: initial; font-size: 11px;&quot;&gt;&lt;font style=&quot;font-size: 11px;&quot;&gt;- exist for num of times&lt;/font&gt;&lt;/span&gt;&lt;/div&gt;&lt;div style=&quot;text-align: left; font-size: 11px;&quot;&gt;&lt;span style=&quot;background-color: initial; font-size: 11px;&quot;&gt;&lt;font style=&quot;font-size: 11px;&quot;&gt;- exist when card monster exist&lt;/font&gt;&lt;/span&gt;&lt;/div&gt;&lt;div style=&quot;text-align: left; font-size: 11px;&quot;&gt;&lt;font style=&quot;font-size: 11px;&quot;&gt;&lt;br style=&quot;font-size: 11px;&quot;&gt;&lt;/font&gt;&lt;/div&gt;&lt;div style=&quot;text-align: left; font-size: 11px;&quot;&gt;&lt;span style=&quot;background-color: initial; font-size: 11px;&quot;&gt;&lt;font style=&quot;font-size: 11px;&quot;&gt;Buff effect target&lt;/font&gt;&lt;/span&gt;&lt;/div&gt;&lt;div style=&quot;text-align: left; font-size: 11px;&quot;&gt;&lt;span style=&quot;background-color: initial; font-size: 11px;&quot;&gt;&lt;font style=&quot;font-size: 11px;&quot;&gt;- can effect player&lt;/font&gt;&lt;/span&gt;&lt;/div&gt;&lt;div style=&quot;text-align: left; font-size: 11px;&quot;&gt;&lt;span style=&quot;background-color: initial; font-size: 11px;&quot;&gt;&lt;font style=&quot;font-size: 11px;&quot;&gt;- can effect enemy&lt;/font&gt;&lt;/span&gt;&lt;/div&gt;&lt;div style=&quot;text-align: left; font-size: 11px;&quot;&gt;&lt;span style=&quot;background-color: initial; font-size: 11px;&quot;&gt;&lt;font style=&quot;font-size: 11px;&quot;&gt;- can effect other cards&lt;/font&gt;&lt;/span&gt;&lt;/div&gt;&lt;div style=&quot;text-align: left; font-size: 11px;&quot;&gt;&lt;span style=&quot;background-color: initial; font-size: 11px;&quot;&gt;&lt;font style=&quot;font-size: 11px;&quot;&gt;&lt;br&gt;&lt;/font&gt;&lt;/span&gt;&lt;/div&gt;&lt;div style=&quot;text-align: left; font-size: 11px;&quot;&gt;&lt;span style=&quot;background-color: initial; font-size: 11px;&quot;&gt;&lt;font style=&quot;font-size: 11px;&quot;&gt;BuffID&lt;/font&gt;&lt;/span&gt;&lt;/div&gt;&lt;div style=&quot;text-align: left; font-size: 11px;&quot;&gt;&lt;span style=&quot;background-color: initial; font-size: 11px;&quot;&gt;&lt;font style=&quot;font-size: 11px;&quot;&gt;每一种buff有自己的id（如中毒、脆弱等）每一个id在游戏中会有对应的buff名称、描述、UI显示图；&lt;/font&gt;&lt;/span&gt;&lt;/div&gt;&lt;div style=&quot;text-align: left; font-size: 11px;&quot;&gt;&lt;span style=&quot;background-color: initial; font-size: 11px;&quot;&gt;&lt;font style=&quot;font-size: 11px;&quot;&gt;buffid相同时，buff.ExistType和TriggerTime也相同。当同一只怪物再次被挂上已有buff的效果时，对现有的buff class进行改变，而不再新建一个buff class。(如，当怪物A中毒1层后再次被施加2层中毒效果，则怪物A的中毒效果变为3层Buff.BuffLayerCounter = 3)&amp;nbsp;&lt;/font&gt;&lt;/span&gt;&lt;/div&gt;&lt;div style=&quot;text-align: left; font-size: 11px;&quot;&gt;&lt;span style=&quot;background-color: initial; font-size: 11px;&quot;&gt;&lt;font style=&quot;font-size: 11px;&quot;&gt;&lt;br&gt;&lt;/font&gt;&lt;/span&gt;&lt;/div&gt;&lt;div style=&quot;text-align: left; font-size: 11px;&quot;&gt;&lt;span style=&quot;background-color: initial; font-size: 11px;&quot;&gt;&lt;font style=&quot;font-size: 11px;&quot;&gt;&lt;br&gt;&lt;/font&gt;&lt;/span&gt;&lt;/div&gt;&lt;div style=&quot;text-align: left; font-size: 11px;&quot;&gt;&lt;span style=&quot;background-color: initial; font-size: 11px;&quot;&gt;&lt;font style=&quot;font-size: 11px;&quot;&gt;&lt;br&gt;&lt;/font&gt;&lt;/span&gt;&lt;/div&gt;&lt;div style=&quot;text-align: left; font-size: 11px;&quot;&gt;&lt;span style=&quot;background-color: initial; font-size: 11px;&quot;&gt;&lt;font style=&quot;font-size: 11px;&quot;&gt;ExistCounter: 将继续持续次数，每次-1&lt;/font&gt;&lt;/span&gt;&lt;/div&gt;&lt;div style=&quot;text-align: left; font-size: 11px;&quot;&gt;&lt;span style=&quot;background-color: initial; font-size: 11px;&quot;&gt;&lt;font style=&quot;font-size: 11px;&quot;&gt;LayerConter:&amp;nbsp;&lt;/font&gt;&lt;/span&gt;&lt;/div&gt;&lt;div style=&quot;text-align: left; font-size: 11px;&quot;&gt;比如有张卡效果是整局游戏内都将对象的攻击力+1，可以叠层，用一次+1，再用+2&lt;/div&gt;&lt;div style=&quot;text-align: left; font-size: 11px;&quot;&gt;&lt;span style=&quot;background-color: initial; font-size: 11px;&quot;&gt;&lt;font style=&quot;font-size: 11px;&quot;&gt;&lt;br&gt;&lt;/font&gt;&lt;/span&gt;&lt;/div&gt;" style="rounded=0;whiteSpace=wrap;html=1;" parent="WIyWlLk6GJQsqaUBKTNV-1" vertex="1">
          <mxGeometry x="741" y="590" width="179" height="700" as="geometry" />
        </mxCell>
        <mxCell id="YYJl7h6oAbYJ0HVccWD1-144" value="control&lt;br&gt;&lt;ul&gt;&lt;li&gt;card life&lt;/li&gt;&lt;li&gt;card attack&lt;/li&gt;&lt;li&gt;card ability&lt;/li&gt;&lt;li&gt;UI text&lt;/li&gt;&lt;/ul&gt;card condition:&lt;br&gt;&lt;ul&gt;&lt;li&gt;inactive&lt;/li&gt;&lt;li&gt;active&lt;/li&gt;&lt;li&gt;dead&lt;/li&gt;&lt;/ul&gt;&lt;div&gt;&lt;br&gt;&lt;/div&gt;&lt;div&gt;&lt;b&gt;CardAction&lt;/b&gt;&lt;/div&gt;&lt;div&gt;伤害敌人，call enemy.takeDamage（ATK）&lt;/div&gt;" style="rounded=0;whiteSpace=wrap;html=1;align=left;" parent="WIyWlLk6GJQsqaUBKTNV-1" vertex="1">
          <mxGeometry x="1569" y="350" width="171" height="450" as="geometry" />
        </mxCell>
        <mxCell id="U_VtNrL4AbAIC2CS7Lok-1" value="Fighter" style="swimlane;fontStyle=2;align=center;verticalAlign=top;childLayout=stackLayout;horizontal=1;startSize=26;horizontalStack=0;resizeParent=1;resizeLast=0;collapsible=1;marginBottom=0;rounded=0;shadow=0;strokeWidth=1;fontSize=12;" vertex="1" parent="WIyWlLk6GJQsqaUBKTNV-1">
          <mxGeometry x="300" y="340" width="188" height="210" as="geometry">
            <mxRectangle x="230" y="140" width="160" height="26" as="alternateBounds" />
          </mxGeometry>
        </mxCell>
        <mxCell id="U_VtNrL4AbAIC2CS7Lok-2" value="List&lt;Buff&gt; BuffList" style="text;align=left;verticalAlign=top;spacingLeft=4;spacingRight=4;overflow=hidden;rotatable=0;points=[[0,0.5],[1,0.5]];portConstraint=eastwest;fontSize=9;" vertex="1" parent="U_VtNrL4AbAIC2CS7Lok-1">
          <mxGeometry y="26" width="188" height="74" as="geometry" />
        </mxCell>
        <mxCell id="U_VtNrL4AbAIC2CS7Lok-3" value="" style="line;html=1;strokeWidth=1;align=left;verticalAlign=middle;spacingTop=-1;spacingLeft=3;spacingRight=3;rotatable=0;labelPosition=right;points=[];portConstraint=eastwest;fontSize=8;" vertex="1" parent="U_VtNrL4AbAIC2CS7Lok-1">
          <mxGeometry y="100" width="188" height="8" as="geometry" />
        </mxCell>
        <mxCell id="U_VtNrL4AbAIC2CS7Lok-4" value="??" style="text;align=left;verticalAlign=top;spacingLeft=4;spacingRight=4;overflow=hidden;rotatable=0;points=[[0,0.5],[1,0.5]];portConstraint=eastwest;fontSize=9;" vertex="1" parent="U_VtNrL4AbAIC2CS7Lok-1">
          <mxGeometry y="108" width="188" height="15" as="geometry" />
        </mxCell>
        <mxCell id="YYJl7h6oAbYJ0HVccWD1-138" value="void takeDamage" style="text;align=left;verticalAlign=top;spacingLeft=4;spacingRight=4;overflow=hidden;rotatable=0;points=[[0,0.5],[1,0.5]];portConstraint=eastwest;fontSize=9;" parent="U_VtNrL4AbAIC2CS7Lok-1" vertex="1">
          <mxGeometry y="123" width="188" height="15" as="geometry" />
        </mxCell>
        <mxCell id="U_VtNrL4AbAIC2CS7Lok-6" value="ExistType= {Times, Turn, Battle, WholeGame, TargetExist, CreaterExist }&lt;br&gt;&lt;br&gt;TriggerTime = {TurnStart, BeingAttack}" style="rounded=0;whiteSpace=wrap;html=1;align=left;" vertex="1" parent="WIyWlLk6GJQsqaUBKTNV-1">
          <mxGeometry x="375" y="590" width="155" height="203" as="geometry" />
        </mxCell>
      </root>
    </mxGraphModel>
  </diagram>
</mxfile>
